<svg height="512pt" viewBox="0 -61 512 512" width="512pt" xmlns="http://www.w3.org/2000/svg"><path d="m419.800781 300c-35.699219 55.5-97.199219 90-163.800781 90-66.597656 0-128.398438-34.5-163.800781-90.300781l70.199219-29.699219h204zm0 0" fill="#f2f2fc"/><path d="m366.398438 270 53.402343 30c-35.699219 55.5-97.199219 90-163.800781 90v-120zm0 0" fill="#d8d8fc"/><path d="m451 75v75c-3.601562 1.5-16.199219 16.5-27 30h-325.199219l-37.800781-30v-75c0-8.402344 6.601562-15 15-15h360c8.402344 0 15 6.597656 15 15zm0 0" fill="#f2f2fc"/><path d="m451 75v75c-3.601562 1.5-16.199219 16.5-27 30h-168v-120h180c8.402344 0 15 6.597656 15 15zm0 0" fill="#d8d8fc"/><path d="m61 150v45c0 37.800781 10.800781 74.398438 30.601562 105h164.398438 164.101562c20.097657-30.601562 30.898438-67.199219 30.898438-105v-45zm0 0" fill="#d8d8fc"/><path d="m256 120c-57.898438 0-105 47.101562-105 105s47.101562 105 105 105 105-47.101562 105-105-47.101562-105-105-105zm0 0" fill="#575f64"/><path d="m481 20.699219v54.300781c0 8.398438-6.597656 15-15 15h-420c-8.398438 0-15-6.601562-15-15v-54.300781zm0 0" fill="#64e1dc"/><path d="m256 150h195v45c0 37.800781-10.800781 74.398438-30.898438 105 0 0-5.101562 0-164.101562 0zm0 0" fill="#a3a3d1"/><path d="m481 20.699219v54.300781c0 8.398438-6.597656 15-15 15h-210v-69.300781zm0 0" fill="#00c8c8"/><path d="m361 225c0 57.898438-47.101562 105-105 105v-210c57.898438 0 105 47.101562 105 105zm0 0" fill="#32393f"/><path d="m512 15c0 8.398438-6.597656 15-15 15h-482c-8.398438 0-15-6.601562-15-15 0-8.402344 6.601562-15 15-15h482c8.402344 0 15 6.597656 15 15zm0 0" fill="#575f64"/><path d="m512 15c0 8.398438-6.597656 15-15 15h-241v-30h241c8.402344 0 15 6.597656 15 15zm0 0" fill="#32393f"/><path d="m256 180c-24.898438 0-45 20.097656-45 45 0 24.898438 20.101562 45 45 45 24.902344 0 45-20.101562 45-45 0-24.902344-20.097656-45-45-45zm0 0" fill="#64e1dc"/><path d="m301 225c0 24.898438-20.097656 45-45 45v-90c24.902344 0 45 20.097656 45 45zm0 0" fill="#00c8c8"/></svg>